<svg width="138" height="32" viewBox="0 0 138 32" fill="none" xmlns="http://www.w3.org/2000/svg">
<g filter="url(#filter0_d)">
<path d="M8.704 0.279999L14.848 17.752L20.928 0.279999H25.568L16.96 23H12.704L4.064 0.279999H8.704ZM36.814 23.16C35.15 23.16 33.6353 22.84 32.27 22.2C30.926 21.56 29.7633 20.696 28.782 19.608C27.822 18.4987 27.0753 17.2613 26.542 15.896C26.0087 14.5093 25.742 13.0907 25.742 11.64C25.742 10.1253 26.0193 8.68533 26.574 7.32C27.1287 5.93333 27.9073 4.70667 28.91 3.64C29.9127 2.552 31.086 1.69867 32.43 1.08C33.7953 0.439999 35.2887 0.119999 36.91 0.119999C38.5527 0.119999 40.046 0.450666 41.39 1.112C42.7553 1.77333 43.918 2.65867 44.878 3.768C45.8593 4.87733 46.606 6.12533 47.118 7.512C47.6513 8.87733 47.918 10.2747 47.918 11.704C47.918 13.1973 47.6407 14.6373 47.086 16.024C46.5313 17.3893 45.7527 18.616 44.75 19.704C43.7687 20.7707 42.5953 21.6133 41.23 22.232C39.886 22.8507 38.414 23.16 36.814 23.16ZM30.222 11.64C30.222 12.9627 30.478 14.2 30.99 15.352C31.5233 16.504 32.2807 17.4427 33.262 18.168C34.2647 18.8933 35.4593 19.256 36.846 19.256C38.2753 19.256 39.4807 18.8827 40.462 18.136C41.4433 17.3893 42.19 16.4293 42.702 15.256C43.214 14.0827 43.47 12.8773 43.47 11.64C43.47 10.3173 43.2033 9.08 42.67 7.928C42.1367 6.776 41.3687 5.848 40.366 5.144C39.3847 4.41867 38.2113 4.056 36.846 4.056C35.4167 4.056 34.2113 4.42933 33.23 5.176C32.2487 5.92267 31.502 6.88267 30.99 8.056C30.478 9.208 30.222 10.4027 30.222 11.64ZM64.7478 6.232C64.5558 6.01867 64.1504 5.74133 63.5318 5.4C62.9131 5.03733 62.1664 4.71733 61.2918 4.44C60.4384 4.14133 59.5531 3.992 58.6358 3.992C56.2251 3.992 55.0198 4.84533 55.0198 6.552C55.0198 7.17067 55.2118 7.66133 55.5958 8.024C55.9798 8.38667 56.5558 8.696 57.3238 8.952C58.0918 9.208 59.0518 9.48533 60.2038 9.784C61.6971 10.168 62.9878 10.616 64.0758 11.128C65.1851 11.64 66.0278 12.3227 66.6038 13.176C67.2011 14.008 67.4998 15.1173 67.4998 16.504C67.4998 18.1253 67.1051 19.4373 66.3158 20.44C65.5478 21.4213 64.5238 22.136 63.2438 22.584C61.9638 23.032 60.5771 23.256 59.0838 23.256C57.3771 23.256 55.6811 23 53.9958 22.488C52.3318 21.9547 50.8491 21.2293 49.5478 20.312L51.4998 16.504C51.6918 16.696 52.0331 16.952 52.5238 17.272C53.0144 17.5707 53.6118 17.88 54.3158 18.2C55.0198 18.4987 55.7878 18.7547 56.6198 18.968C57.4518 19.1813 58.2944 19.288 59.1478 19.288C61.5798 19.288 62.7958 18.5093 62.7958 16.952C62.7958 16.2907 62.5504 15.7573 62.0598 15.352C61.5691 14.9467 60.8758 14.6053 59.9798 14.328C59.1051 14.0507 58.0811 13.7413 56.9078 13.4C55.4571 12.9947 54.2518 12.5467 53.2918 12.056C52.3531 11.544 51.6491 10.9147 51.1798 10.168C50.7104 9.4 50.4758 8.42933 50.4758 7.256C50.4758 5.69867 50.8384 4.39733 51.5638 3.352C52.3104 2.28533 53.3131 1.48533 54.5718 0.952C55.8304 0.397333 57.2278 0.119999 58.7638 0.119999C60.3424 0.119999 61.8144 0.375999 63.1798 0.887999C64.5451 1.4 65.7184 1.98667 66.6998 2.648L64.7478 6.232ZM87.8288 4.152H80.5648V23H76.1808V4.152H68.9168V0.279999H87.8288V4.152ZM100.281 23.16C98.4679 23.16 96.9213 22.8613 95.6413 22.264C94.3826 21.6453 93.3586 20.8027 92.5693 19.736C91.8013 18.6693 91.2359 17.464 90.8733 16.12C90.5106 14.7547 90.3293 13.336 90.3293 11.864V0.279999H94.7453V11.864C94.7453 13.1227 94.9159 14.3173 95.2573 15.448C95.5986 16.5787 96.1746 17.496 96.9853 18.2C97.7959 18.904 98.8839 19.256 100.249 19.256C101.657 19.256 102.767 18.904 103.577 18.2C104.388 17.4747 104.964 16.5467 105.305 15.416C105.647 14.2853 105.817 13.1013 105.817 11.864V0.279999H110.201V11.864C110.201 13.4213 110.009 14.8827 109.625 16.248C109.263 17.6133 108.676 18.8187 107.865 19.864C107.076 20.888 106.052 21.6987 104.793 22.296C103.535 22.872 102.031 23.16 100.281 23.16ZM114.649 23V0.279999H124.697C125.743 0.279999 126.703 0.493332 127.577 0.919998C128.473 1.34667 129.241 1.92267 129.881 2.648C130.543 3.37333 131.044 4.184 131.385 5.08C131.748 5.976 131.929 6.89333 131.929 7.832C131.929 9.28267 131.556 10.616 130.809 11.832C130.084 13.048 129.092 13.9227 127.833 14.456L133.017 23H128.153L123.481 15.384H119.065V23H114.649ZM119.065 11.512H124.601C125.433 11.512 126.116 11.16 126.649 10.456C127.204 9.73067 127.481 8.856 127.481 7.832C127.481 7.128 127.332 6.49867 127.033 5.944C126.735 5.38933 126.351 4.952 125.881 4.632C125.433 4.312 124.943 4.152 124.409 4.152H119.065V11.512Z" fill="#9B9B9B"/>
</g>
<defs>
<filter id="filter0_d" x="0.0639954" y="0.119995" width="136.953" height="31.136" filterUnits="userSpaceOnUse" color-interpolation-filters="sRGB">
<feFlood flood-opacity="0" result="BackgroundImageFix"/>
<feColorMatrix in="SourceAlpha" type="matrix" values="0 0 0 0 0 0 0 0 0 0 0 0 0 0 0 0 0 0 127 0"/>
<feOffset dy="4"/>
<feGaussianBlur stdDeviation="2"/>
<feColorMatrix type="matrix" values="0 0 0 0 0 0 0 0 0 0 0 0 0 0 0 0 0 0 0.25 0"/>
<feBlend mode="normal" in2="BackgroundImageFix" result="effect1_dropShadow"/>
<feBlend mode="normal" in="SourceGraphic" in2="effect1_dropShadow" result="shape"/>
</filter>
</defs>
</svg>
